<svg width="24" height="26" viewBox="0 0 24 26" fill="none" xmlns="http://www.w3.org/2000/svg">
<path d="M11.2342 10.0146C10.3561 10.0146 9.45857 10.1463 8.5415 10.4098C7.62442 10.6732 6.68784 11.0878 5.73174 11.6537L6.93174 22.0146H17.7317L18.961 11.2146H18.8439C18.1025 11.2146 17.3805 11.1561 16.6781 11.039C15.9756 10.922 15.0878 10.6976 14.0147 10.3659C13.5659 10.2488 13.1025 10.161 12.6244 10.1024C12.1464 10.0439 11.683 10.0146 11.2342 10.0146ZM5.29272 7.67317C6.28784 7.22439 7.28296 6.89268 8.27808 6.67805C9.2732 6.46342 10.2683 6.3561 11.2634 6.3561C11.8878 6.3561 12.5122 6.4 13.1366 6.48781C13.761 6.57561 14.3756 6.69756 14.9805 6.85366C15.9756 7.12683 16.722 7.3122 17.2195 7.40976C17.7171 7.50732 18.2488 7.5561 18.8147 7.5561H19.3708L19.722 3.98537H4.91223L5.29272 7.67317ZM6.90247 25.7024C5.96589 25.7024 5.14638 25.3902 4.44394 24.7659C3.7415 24.1415 3.3415 23.361 3.24394 22.4244L0.7854 0.297562H23.8488L21.4195 22.4244C21.322 23.361 20.922 24.1415 20.2195 24.7659C19.5171 25.3902 18.6976 25.7024 17.761 25.7024H6.90247ZM11.2342 22.0439H14.0147C15.0878 22.0439 15.922 22.039 16.5171 22.0293C17.1122 22.0195 17.5171 22.0146 17.7317 22.0146H6.93174C7.30247 22.0146 7.89272 22.0195 8.70247 22.0293C9.51223 22.039 10.3561 22.0439 11.2342 22.0439Z" fill="white"/>
</svg>
