<svg width="129" height="34" viewBox="0 0 129 34" fill="none" xmlns="http://www.w3.org/2000/svg">
<path d="M0.724059 8.95522C0.96072 8.9758 1.22825 8.99638 1.52665 9.01696C1.78389 9.03754 2.08229 9.05298 2.42185 9.06327C2.7717 9.07355 3.15241 9.0787 3.564 9.0787C4.14022 9.0787 4.75759 9.06327 5.41613 9.0324C6.08496 8.99124 6.74349 8.91407 7.39174 8.80088C7.26827 9.03754 7.16022 9.35652 7.06762 9.75782C6.9853 10.1488 6.91327 10.6067 6.85154 11.1315C7.27341 10.2054 7.8342 9.48514 8.53389 8.97066C9.24388 8.45618 10.1391 8.19894 11.2195 8.19894C11.4561 8.19894 11.7545 8.21437 12.1147 8.24524C12.4851 8.27611 12.871 8.379 13.2723 8.55393C13.6839 8.72885 14.0903 9.00153 14.4916 9.37195C14.9032 9.73209 15.2685 10.2466 15.5874 10.9154C15.9167 11.5842 16.1791 12.428 16.3746 13.4466C16.5804 14.455 16.6833 15.7001 16.6833 17.1818C16.6833 18.4165 16.5907 19.5227 16.4055 20.5002C16.2305 21.4674 15.9887 22.3215 15.68 23.0623C15.3816 23.8032 15.0266 24.436 14.6151 24.9607C14.2138 25.4752 13.7867 25.8971 13.334 26.2264C12.8916 26.5556 12.4337 26.7923 11.9603 26.9364C11.4973 27.0907 11.0497 27.1679 10.6175 27.1679C10.1133 27.1679 9.64517 27.065 9.21301 26.8592C8.79113 26.6534 8.41556 26.3704 8.08629 26.0103C7.75702 25.6399 7.47406 25.2026 7.2374 24.6984C7.00074 24.1839 6.82067 23.6231 6.69719 23.016C6.70748 23.4893 6.72806 24.0398 6.75893 24.6675C6.7898 25.2952 6.82581 25.9486 6.86697 26.6277C6.90813 27.2965 6.95443 27.9705 7.00588 28.6496C7.05733 29.3287 7.11392 29.9564 7.17566 30.5326C7.2374 31.1191 7.30428 31.6284 7.37631 32.0606C7.45862 32.4928 7.54609 32.8015 7.63869 32.9867C6.81552 32.8426 6.04894 32.7449 5.33896 32.6934C4.62897 32.6523 3.98587 32.6317 3.40965 32.6317C3.03923 32.6317 2.70481 32.6368 2.40641 32.6471C2.10801 32.6574 1.85592 32.6728 1.65013 32.6934C1.40317 32.714 1.18709 32.7346 1.00188 32.7551C1.10477 32.2407 1.20253 31.5667 1.29513 30.7332C1.38774 29.9101 1.46491 28.9789 1.52665 27.9396C1.59868 26.9106 1.65527 25.8045 1.69643 24.6212C1.73759 23.4276 1.75817 22.2083 1.75817 20.9632C1.75817 19.8211 1.73759 18.6841 1.69643 17.5522C1.66556 16.4204 1.60897 15.3348 1.52665 14.2955C1.44433 13.2563 1.33629 12.2839 1.20253 11.3784C1.06876 10.4627 0.909272 9.65492 0.724059 8.95522ZM7.06762 16.549V19.0339C7.06762 19.3117 7.08305 19.5947 7.11392 19.8828C7.14479 20.1709 7.21167 20.4333 7.31457 20.67C7.42775 20.9066 7.58724 21.1021 7.79304 21.2565C7.99883 21.4005 8.27665 21.4726 8.6265 21.4726C8.87345 21.4726 9.08439 21.3748 9.25931 21.1793C9.43423 20.9838 9.57829 20.7317 9.69147 20.423C9.80466 20.1143 9.89727 19.7696 9.96929 19.3889C10.0413 19.0082 10.0928 18.6326 10.1236 18.2622C10.1545 17.8815 10.1751 17.5316 10.1854 17.2127C10.1957 16.8834 10.2008 16.6261 10.2008 16.4409C10.2008 16.1631 10.1854 15.8236 10.1545 15.4223C10.1339 15.021 10.0773 14.63 9.98473 14.2492C9.89212 13.8685 9.74807 13.5444 9.55256 13.2769C9.36735 13.0093 9.11011 12.8756 8.78084 12.8756C8.41041 12.8756 8.11202 13.0093 7.88564 13.2769C7.65927 13.5341 7.48435 13.8531 7.36087 14.2338C7.24769 14.6042 7.17051 15.0055 7.12936 15.4377C7.0882 15.8596 7.06762 16.23 7.06762 16.549ZM31.4386 12.3045C31.4386 13.0762 31.3254 13.8274 31.0991 14.5579C30.883 15.2885 30.4971 15.9367 29.9415 16.5027C29.3858 17.0686 28.6347 17.5213 27.688 17.8609C26.7517 18.2005 25.5581 18.3702 24.1073 18.3702C24.1484 18.8744 24.2513 19.2963 24.4159 19.6359C24.5909 19.9754 24.7967 20.2481 25.0333 20.4539C25.27 20.6597 25.5221 20.814 25.7896 20.9169C26.0571 21.0198 26.3041 21.0918 26.5305 21.133C26.7568 21.1742 26.9472 21.1947 27.1015 21.1947C27.2559 21.1947 27.3331 21.1947 27.3331 21.1947C27.971 21.1227 28.5421 20.9581 29.0463 20.7008C29.2624 20.5979 29.4733 20.4693 29.6791 20.315C29.8849 20.1503 30.0701 19.96 30.2347 19.7439C30.4097 19.5175 30.5486 19.2654 30.6515 18.9876C30.7646 18.6995 30.8315 18.3702 30.8521 17.9998C31.1196 18.6686 31.3049 19.2963 31.4077 19.8828C31.5209 20.459 31.5775 20.9992 31.5775 21.5034C31.5775 22.4295 31.4077 23.2835 31.0682 24.0656C30.7389 24.8373 30.281 25.5061 29.6945 26.072C29.108 26.638 28.4083 27.0753 27.5954 27.384C26.7928 27.7029 25.9182 27.8624 24.9716 27.8624C24.0455 27.8624 23.1503 27.7029 22.286 27.384C21.4319 27.065 20.6705 26.5608 20.0017 25.8714C19.3432 25.1717 18.8132 24.2662 18.4119 23.1549C18.0209 22.0436 17.8254 20.6957 17.8254 19.1111C17.8254 17.3927 18.0724 15.8699 18.5663 14.5425C19.0602 13.2151 19.7239 12.1039 20.5573 11.2087C21.3908 10.3032 22.3529 9.61891 23.4436 9.15587C24.5446 8.68255 25.697 8.44589 26.9009 8.44589C27.4977 8.44589 28.0688 8.51277 28.6141 8.64654C29.1698 8.7803 29.6534 9.00153 30.0649 9.31022C30.4868 9.61891 30.8212 10.0202 31.0682 10.5141C31.3151 10.9977 31.4386 11.5945 31.4386 12.3045ZM24.0455 15.8236C24.3336 15.8133 24.668 15.7567 25.0488 15.6538C25.4295 15.5406 25.7896 15.3862 26.1292 15.1907C26.4687 14.9952 26.7517 14.7534 26.9781 14.4653C27.2147 14.1772 27.3331 13.8479 27.3331 13.4775C27.3331 13.2409 27.2507 13.0505 27.0861 12.9064C26.9215 12.7624 26.7105 12.6904 26.4533 12.6904C26.0932 12.6904 25.769 12.7933 25.4809 12.9991C25.2031 13.2048 24.9613 13.4621 24.7555 13.7708C24.56 14.0795 24.4005 14.419 24.277 14.7894C24.1536 15.1599 24.0764 15.5046 24.0455 15.8236ZM41.9649 30.6406C41.9649 31.3506 41.8003 31.9011 41.471 32.2921C41.1417 32.6831 40.725 32.9712 40.2208 33.1564C39.7166 33.3417 39.161 33.4497 38.5539 33.4806C37.9571 33.5217 37.386 33.5423 36.8407 33.5423C36.8921 33.3262 36.9281 33.105 36.9487 32.8786C36.9796 32.6523 36.995 32.4104 36.995 32.1532C36.995 31.968 36.9847 31.7725 36.9641 31.5667C36.9436 31.3609 36.9024 31.1705 36.8407 30.9956C36.9024 31.0574 37.0002 31.114 37.1339 31.1654C37.278 31.2168 37.4272 31.258 37.5815 31.2889C37.7359 31.3197 37.8851 31.3455 38.0291 31.366C38.1835 31.3866 38.3069 31.3969 38.3996 31.3969C38.6774 31.3969 38.9295 31.33 39.1558 31.1963C39.3822 31.0728 39.4954 30.8464 39.4954 30.5172C39.4954 30.3525 39.4542 30.2085 39.3719 30.085C39.2896 29.9718 39.1816 29.8792 39.0478 29.8072C38.914 29.7351 38.77 29.6785 38.6156 29.6374C38.4613 29.6065 38.3121 29.5911 38.168 29.5911C37.9931 29.5911 37.813 29.6014 37.6278 29.622C37.4529 29.6528 37.278 29.6991 37.1031 29.7609L37.9828 27.2914C37.1185 27.0753 36.3519 26.6894 35.6831 26.1338C35.0246 25.5678 34.4689 24.8939 34.0162 24.1119C33.5634 23.3196 33.2187 22.4501 32.9821 21.5034C32.7557 20.5465 32.6425 19.5793 32.6425 18.6018C32.6425 17.7992 32.7248 16.9863 32.8895 16.1631C33.0644 15.3297 33.3113 14.5271 33.6303 13.7553C33.9596 12.9836 34.3609 12.2633 34.8342 11.5945C35.3075 10.9154 35.8426 10.3237 36.4394 9.81955C37.0362 9.31536 37.6896 8.91921 38.3996 8.6311C39.1198 8.34299 39.8864 8.19894 40.6993 8.19894C41.4298 8.19894 42.073 8.2864 42.6286 8.46132C43.1842 8.63625 43.6678 8.86776 44.0794 9.15587C44.491 9.44398 44.8306 9.77839 45.0981 10.1591C45.3656 10.5295 45.5817 10.9154 45.7464 11.3167C45.911 11.7077 46.0242 12.0987 46.0859 12.4897C46.1579 12.8807 46.194 13.2409 46.194 13.5701C46.194 13.9714 46.1219 14.3882 45.9779 14.8203C45.8441 15.2525 45.6435 15.6486 45.3759 16.0088C45.1084 16.3586 44.7688 16.6467 44.3573 16.8731C43.9457 17.0995 43.4723 17.2127 42.9373 17.2127C42.4845 17.2127 42.0987 17.1355 41.7797 16.9811C41.4607 16.8268 41.1983 16.6261 40.9925 16.3792C40.7867 16.1322 40.6324 15.8493 40.5295 15.5303C40.4369 15.201 40.3906 14.8666 40.3906 14.5271C40.3906 13.8068 40.5655 13.1843 40.9154 12.6595C40.9668 12.8344 41.0388 12.9682 41.1315 13.0608C41.2343 13.1431 41.327 13.2048 41.4093 13.246C41.5122 13.2872 41.6151 13.3129 41.718 13.3232C42.0164 13.3232 42.2067 13.2563 42.289 13.1225C42.3714 12.9888 42.4228 12.8344 42.4434 12.6595C42.4434 12.4846 42.3765 12.3148 42.2427 12.1502C42.109 11.9855 41.8774 11.9032 41.5482 11.9032C41.4556 11.9032 41.3218 11.9186 41.1469 11.9495C40.9823 11.9701 40.7919 12.0318 40.5758 12.1347C40.37 12.2376 40.1591 12.392 39.943 12.5978C39.7269 12.7933 39.5263 13.0711 39.3411 13.4312C39.1661 13.7811 39.0221 14.2235 38.9089 14.7586C38.7957 15.2833 38.7391 15.9213 38.7391 16.6724C38.7391 17.4442 38.8523 18.0718 39.0787 18.5555C39.305 19.0288 39.5726 19.3992 39.8813 19.6667C40.2002 19.924 40.5347 20.0989 40.8845 20.1915C41.2343 20.2841 41.5327 20.3304 41.7797 20.3304C41.9958 20.3304 42.2685 20.2944 42.5977 20.2224C42.927 20.1401 43.2511 19.996 43.5701 19.7902C43.8994 19.5844 44.1978 19.3015 44.4653 18.9413C44.7328 18.5709 44.9129 18.0976 45.0055 17.5213C45.2833 17.9329 45.5045 18.4268 45.6692 19.0031C45.8338 19.569 45.9161 20.1606 45.9161 20.778C45.9161 21.6423 45.7618 22.4604 45.4531 23.2321C45.1444 24.0038 44.7122 24.6881 44.1566 25.2849C43.601 25.8817 42.9321 26.3704 42.1501 26.7511C41.3784 27.1422 40.5244 27.3737 39.588 27.4457L39.4337 28.1094C39.8144 28.1094 40.1591 28.1711 40.4678 28.2946C40.7765 28.4181 41.0388 28.593 41.2549 28.8194C41.4813 29.0457 41.6562 29.3133 41.7797 29.622C41.9032 29.9306 41.9649 30.2702 41.9649 30.6406ZM63.2645 26.8746C63.0689 26.854 62.8426 26.8335 62.5853 26.8129C62.3693 26.7923 62.1069 26.7769 61.7982 26.7666C61.4998 26.7563 61.1705 26.7511 60.8104 26.7511C60.2959 26.7511 59.73 26.7717 59.1126 26.8129C58.5055 26.854 57.8778 26.9312 57.2296 27.0444L57.2913 22.7073C56.9003 24.2405 56.3241 25.4238 55.5627 26.2572C54.8115 27.0907 53.9266 27.5074 52.9079 27.5074C52.589 27.5074 52.2288 27.4663 51.8275 27.384C51.4262 27.3016 51.0146 27.1422 50.5928 26.9055C50.1812 26.6791 49.7747 26.3601 49.3734 25.9486C48.9824 25.537 48.6326 25.0071 48.3239 24.3588C48.0152 23.7003 47.7683 22.908 47.583 21.9819C47.3978 21.0455 47.3052 19.9394 47.3052 18.6635C47.3052 16.9348 47.4802 15.4583 47.83 14.2338C48.1798 12.9991 48.6274 11.9907 49.1728 11.2087C49.7181 10.4266 50.3201 9.85557 50.9786 9.49543C51.6372 9.13529 52.2803 8.95522 52.9079 8.95522C53.443 8.95522 53.9266 9.0324 54.3588 9.18674C54.8012 9.3308 55.1922 9.52115 55.5318 9.75782C55.8713 9.98419 56.1646 10.2414 56.4116 10.5295C56.6585 10.8176 56.8592 11.1058 57.0135 11.3939C56.9826 11.044 56.9363 10.6736 56.8746 10.2826C56.8129 9.88129 56.7408 9.46971 56.6585 9.04783C57.3273 9.1816 58.0064 9.26906 58.6959 9.31022C59.3853 9.35138 60.0232 9.37195 60.6097 9.37195C61.3094 9.37195 61.8754 9.35652 62.3075 9.32565C62.5545 9.31536 62.7808 9.29993 62.9866 9.27935C62.8734 9.79383 62.7705 10.37 62.6779 11.008C62.5853 11.646 62.503 12.3302 62.431 13.0608C62.3693 13.7811 62.3178 14.5425 62.2766 15.3451C62.2458 16.1374 62.2303 16.9503 62.2303 17.7837C62.2303 19.3375 62.3075 20.8963 62.4619 22.4604C62.6162 24.0244 62.8837 25.4958 63.2645 26.8746ZM56.9209 18.0307V15.5303C56.9209 15.2525 56.9055 14.9695 56.8746 14.6814C56.8437 14.3933 56.7717 14.1309 56.6585 13.8942C56.5556 13.6576 56.4013 13.4672 56.1955 13.3232C55.9897 13.1688 55.7119 13.0917 55.362 13.0917C54.9916 13.0917 54.6829 13.2203 54.4359 13.4775C54.1993 13.7348 54.0038 14.0898 53.8494 14.5425C53.7054 14.9849 53.6025 15.5149 53.5407 16.1322C53.4893 16.7393 53.4636 17.403 53.4636 18.1233C53.4636 18.5349 53.4893 18.9516 53.5407 19.3735C53.6025 19.7954 53.7002 20.1812 53.834 20.5311C53.9678 20.8706 54.1478 21.1484 54.3742 21.3645C54.6006 21.5806 54.8784 21.6886 55.2077 21.6886C55.5781 21.6886 55.8765 21.56 56.1029 21.3028C56.3292 21.0455 56.499 20.7266 56.6122 20.3458C56.7357 19.9651 56.818 19.569 56.8592 19.1574C56.9003 18.7355 56.9209 18.3599 56.9209 18.0307ZM85.2431 26.8746C85.0476 26.854 84.8212 26.8335 84.564 26.8129C84.3479 26.7923 84.0855 26.7769 83.7768 26.7666C83.4784 26.7563 83.1492 26.7511 82.789 26.7511C82.2746 26.7511 81.7086 26.7717 81.0912 26.8129C80.4842 26.854 79.8565 26.9312 79.2082 27.0444L79.27 22.7073C78.879 24.2405 78.3028 25.4238 77.5413 26.2572C76.7902 27.0907 75.9053 27.5074 74.8866 27.5074C74.5676 27.5074 74.2075 27.4663 73.8062 27.384C73.4049 27.3016 72.9933 27.1422 72.5714 26.9055C72.1598 26.6791 71.7534 26.3601 71.3521 25.9486C70.9611 25.537 70.6113 25.0071 70.3026 24.3588C69.9939 23.7003 69.7469 22.908 69.5617 21.9819C69.3765 21.0455 69.2839 19.9394 69.2839 18.6635C69.2839 16.9348 69.4588 15.4583 69.8087 14.2338C70.1585 12.9991 70.6061 11.9907 71.1515 11.2087C71.6968 10.4266 72.2988 9.85557 72.9573 9.49543C73.6158 9.13529 74.2589 8.95522 74.8866 8.95522C75.4217 8.95522 75.9053 9.0324 76.3374 9.18674C76.7799 9.3308 77.1709 9.52115 77.5105 9.75782C77.85 9.98419 78.1433 10.2414 78.3902 10.5295C78.6372 10.8176 78.8378 11.1058 78.9922 11.3939C78.9613 11.044 78.915 10.6736 78.8532 10.2826C78.7915 9.88129 78.7195 9.46971 78.6372 9.04783C79.306 9.1816 79.9851 9.26906 80.6745 9.31022C81.3639 9.35138 82.0019 9.37195 82.5884 9.37195C83.2881 9.37195 83.854 9.35652 84.2862 9.32565C84.5331 9.31536 84.7595 9.29993 84.9653 9.27935C84.8521 9.79383 84.7492 10.37 84.6566 11.008C84.564 11.646 84.4817 12.3302 84.4097 13.0608C84.3479 13.7811 84.2965 14.5425 84.2553 15.3451C84.2244 16.1374 84.209 16.9503 84.209 17.7837C84.209 19.3375 84.2862 20.8963 84.4405 22.4604C84.5949 24.0244 84.8624 25.4958 85.2431 26.8746ZM78.8996 18.0307V15.5303C78.8996 15.2525 78.8841 14.9695 78.8532 14.6814C78.8224 14.3933 78.7504 14.1309 78.6372 13.8942C78.5343 13.6576 78.3799 13.4672 78.1741 13.3232C77.9683 13.1688 77.6905 13.0917 77.3407 13.0917C76.9702 13.0917 76.6616 13.2203 76.4146 13.4775C76.1779 13.7348 75.9824 14.0898 75.8281 14.5425C75.684 14.9849 75.5811 15.5149 75.5194 16.1322C75.468 16.7393 75.4422 17.403 75.4422 18.1233C75.4422 18.5349 75.468 18.9516 75.5194 19.3735C75.5811 19.7954 75.6789 20.1812 75.8127 20.5311C75.9464 20.8706 76.1265 21.1484 76.3529 21.3645C76.5792 21.5806 76.8571 21.6886 77.1863 21.6886C77.5568 21.6886 77.8552 21.56 78.0815 21.3028C78.3079 21.0455 78.4777 20.7266 78.5909 20.3458C78.7143 19.9651 78.7967 19.569 78.8378 19.1574C78.879 18.7355 78.8996 18.3599 78.8996 18.0307ZM95.6151 30.6406C95.6151 31.3506 95.4504 31.9011 95.1212 32.2921C94.7919 32.6831 94.3752 32.9712 93.871 33.1564C93.3668 33.3417 92.8111 33.4497 92.204 33.4806C91.6073 33.5217 91.0362 33.5423 90.4908 33.5423C90.5423 33.3262 90.5783 33.105 90.5989 32.8786C90.6297 32.6523 90.6452 32.4104 90.6452 32.1532C90.6452 31.968 90.6349 31.7725 90.6143 31.5667C90.5937 31.3609 90.5526 31.1705 90.4908 30.9956C90.5526 31.0574 90.6503 31.114 90.7841 31.1654C90.9281 31.2168 91.0773 31.258 91.2317 31.2889C91.386 31.3197 91.5352 31.3455 91.6793 31.366C91.8336 31.3866 91.9571 31.3969 92.0497 31.3969C92.3275 31.3969 92.5796 31.33 92.806 31.1963C93.0324 31.0728 93.1456 30.8464 93.1456 30.5172C93.1456 30.3525 93.1044 30.2085 93.0221 30.085C92.9398 29.9718 92.8317 29.8792 92.698 29.8072C92.5642 29.7351 92.4201 29.6785 92.2658 29.6374C92.1114 29.6065 91.9622 29.5911 91.8182 29.5911C91.6433 29.5911 91.4632 29.6014 91.278 29.622C91.1031 29.6528 90.9281 29.6991 90.7532 29.7609L91.633 27.2914C90.7686 27.0753 90.0021 26.6894 89.3332 26.1338C88.6747 25.5678 88.1191 24.8939 87.6663 24.1119C87.2136 23.3196 86.8689 22.4501 86.6322 21.5034C86.4058 20.5465 86.2927 19.5793 86.2927 18.6018C86.2927 17.7992 86.375 16.9863 86.5396 16.1631C86.7145 15.3297 86.9615 14.5271 87.2805 13.7553C87.6097 12.9836 88.011 12.2633 88.4843 11.5945C88.9577 10.9154 89.4927 10.3237 90.0895 9.81955C90.6863 9.31536 91.3397 8.91921 92.0497 8.6311C92.77 8.34299 93.5366 8.19894 94.3494 8.19894C95.08 8.19894 95.7231 8.2864 96.2787 8.46132C96.8344 8.63625 97.318 8.86776 97.7296 9.15587C98.1412 9.44398 98.4807 9.77839 98.7483 10.1591C99.0158 10.5295 99.2319 10.9154 99.3965 11.3167C99.5611 11.7077 99.6743 12.0987 99.7361 12.4897C99.8081 12.8807 99.8441 13.2409 99.8441 13.5701C99.8441 13.9714 99.7721 14.3882 99.628 14.8203C99.4943 15.2525 99.2936 15.6486 99.0261 16.0088C98.7585 16.3586 98.419 16.6467 98.0074 16.8731C97.5958 17.0995 97.1225 17.2127 96.5874 17.2127C96.1347 17.2127 95.7488 17.1355 95.4298 16.9811C95.1109 16.8268 94.8485 16.6261 94.6427 16.3792C94.4369 16.1322 94.2826 15.8493 94.1797 15.5303C94.0871 15.201 94.0407 14.8666 94.0407 14.5271C94.0407 13.8068 94.2157 13.1843 94.5655 12.6595C94.617 12.8344 94.689 12.9682 94.7816 13.0608C94.8845 13.1431 94.9771 13.2048 95.0594 13.246C95.1623 13.2872 95.2652 13.3129 95.3681 13.3232C95.6665 13.3232 95.8569 13.2563 95.9392 13.1225C96.0215 12.9888 96.073 12.8344 96.0935 12.6595C96.0935 12.4846 96.0266 12.3148 95.8929 12.1502C95.7591 11.9855 95.5276 11.9032 95.1983 11.9032C95.1057 11.9032 94.972 11.9186 94.797 11.9495C94.6324 11.9701 94.442 12.0318 94.226 12.1347C94.0202 12.2376 93.8092 12.392 93.5931 12.5978C93.3771 12.7933 93.1764 13.0711 92.9912 13.4312C92.8163 13.7811 92.6722 14.2235 92.559 14.7586C92.4459 15.2833 92.3893 15.9213 92.3893 16.6724C92.3893 17.4442 92.5024 18.0718 92.7288 18.5555C92.9552 19.0288 93.2227 19.3992 93.5314 19.6667C93.8504 19.924 94.1848 20.0989 94.5347 20.1915C94.8845 20.2841 95.1829 20.3304 95.4298 20.3304C95.6459 20.3304 95.9186 20.2944 96.2479 20.2224C96.5771 20.1401 96.9013 19.996 97.2202 19.7902C97.5495 19.5844 97.8479 19.3015 98.1154 18.9413C98.383 18.5709 98.563 18.0976 98.6556 17.5213C98.9335 17.9329 99.1547 18.4268 99.3193 19.0031C99.484 19.569 99.5663 20.1606 99.5663 20.778C99.5663 21.6423 99.4119 22.4604 99.1032 23.2321C98.7946 24.0038 98.3624 24.6881 97.8068 25.2849C97.2511 25.8817 96.5823 26.3704 95.8003 26.7511C95.0286 27.1422 94.1745 27.3737 93.2382 27.4457L93.0838 28.1094C93.4645 28.1094 93.8092 28.1711 94.1179 28.2946C94.4266 28.4181 94.689 28.593 94.9051 28.8194C95.1315 29.0457 95.3064 29.3133 95.4298 29.622C95.5533 29.9306 95.6151 30.2702 95.6151 30.6406ZM116.915 26.8746C116.719 26.854 116.493 26.8335 116.235 26.8129C116.019 26.7923 115.757 26.7769 115.448 26.7666C115.15 26.7563 114.821 26.7511 114.461 26.7511C113.946 26.7511 113.38 26.7717 112.763 26.8129C112.156 26.854 111.528 26.9312 110.88 27.0444L110.941 22.7073C110.55 24.2405 109.974 25.4238 109.213 26.2572C108.462 27.0907 107.577 27.5074 106.558 27.5074C106.239 27.5074 105.879 27.4663 105.478 27.384C105.076 27.3016 104.665 27.1422 104.243 26.9055C103.831 26.6791 103.425 26.3601 103.024 25.9486C102.633 25.537 102.283 25.0071 101.974 24.3588C101.665 23.7003 101.418 22.908 101.233 21.9819C101.048 21.0455 100.955 19.9394 100.955 18.6635C100.955 16.9348 101.13 15.4583 101.48 14.2338C101.83 12.9991 102.278 11.9907 102.823 11.2087C103.368 10.4266 103.97 9.85557 104.629 9.49543C105.287 9.13529 105.93 8.95522 106.558 8.95522C107.093 8.95522 107.577 9.0324 108.009 9.18674C108.451 9.3308 108.842 9.52115 109.182 9.75782C109.522 9.98419 109.815 10.2414 110.062 10.5295C110.309 10.8176 110.509 11.1058 110.664 11.3939C110.633 11.044 110.586 10.6736 110.525 10.2826C110.463 9.88129 110.391 9.46971 110.309 9.04783C110.977 9.1816 111.657 9.26906 112.346 9.31022C113.035 9.35138 113.673 9.37195 114.26 9.37195C114.96 9.37195 115.526 9.35652 115.958 9.32565C116.205 9.31536 116.431 9.29993 116.637 9.27935C116.524 9.79383 116.421 10.37 116.328 11.008C116.235 11.646 116.153 12.3302 116.081 13.0608C116.019 13.7811 115.968 14.5425 115.927 15.3451C115.896 16.1374 115.88 16.9503 115.88 17.7837C115.88 19.3375 115.958 20.8963 116.112 22.4604C116.266 24.0244 116.534 25.4958 116.915 26.8746ZM110.571 18.0307V15.5303C110.571 15.2525 110.556 14.9695 110.525 14.6814C110.494 14.3933 110.422 14.1309 110.309 13.8942C110.206 13.6576 110.051 13.4672 109.846 13.3232C109.64 13.1688 109.362 13.0917 109.012 13.0917C108.642 13.0917 108.333 13.2203 108.086 13.4775C107.849 13.7348 107.654 14.0898 107.5 14.5425C107.356 14.9849 107.253 15.5149 107.191 16.1322C107.139 16.7393 107.114 17.403 107.114 18.1233C107.114 18.5349 107.139 18.9516 107.191 19.3735C107.253 19.7954 107.35 20.1812 107.484 20.5311C107.618 20.8706 107.798 21.1484 108.024 21.3645C108.251 21.5806 108.529 21.6886 108.858 21.6886C109.228 21.6886 109.527 21.56 109.753 21.3028C109.979 21.0455 110.149 20.7266 110.262 20.3458C110.386 19.9651 110.468 19.569 110.509 19.1574C110.55 18.7355 110.571 18.3599 110.571 18.0307ZM125.542 26.5968C125.368 26.5865 125.162 26.5711 124.925 26.5505C124.719 26.5402 124.477 26.5299 124.2 26.5196C123.922 26.5093 123.603 26.5042 123.243 26.5042C122.574 26.5042 121.802 26.5351 120.928 26.5968C120.053 26.6482 119.106 26.7511 118.088 26.9055C118.283 26.5145 118.448 26.0257 118.582 25.4392C118.715 24.8424 118.823 24.2096 118.906 23.5408C118.998 22.8617 119.065 22.1774 119.106 21.488C119.158 20.7986 119.194 20.1658 119.214 19.5896C119.235 19.0133 119.245 18.5246 119.245 18.1233C119.255 17.722 119.261 17.4699 119.261 17.367C119.24 16.0293 119.194 14.7792 119.122 13.6164C119.091 13.1225 119.05 12.6235 118.998 12.1193C118.957 11.6151 118.906 11.1418 118.844 10.6993C118.782 10.2466 118.71 9.84528 118.628 9.49543C118.556 9.13529 118.468 8.85233 118.365 8.64654C119.199 8.79059 119.971 8.88834 120.681 8.93979C121.391 8.99124 122.034 9.01696 122.61 9.01696C122.98 9.01696 123.31 9.01182 123.598 9.00153C123.896 8.98095 124.148 8.96037 124.354 8.93979C124.601 8.91921 124.817 8.89349 125.002 8.86262C124.817 9.78868 124.663 10.9051 124.539 12.2119C124.426 13.5187 124.369 14.9181 124.369 16.4101C124.369 17.2641 124.39 18.1284 124.431 19.0031C124.472 19.8777 124.539 20.7523 124.632 21.6269C124.724 22.4912 124.843 23.3453 124.987 24.189C125.141 25.0225 125.326 25.8251 125.542 26.5968ZM123.181 7.90568L120.11 6.53202C120.737 5.62653 121.324 4.75705 121.869 3.92359C122.095 3.57375 122.327 3.21361 122.564 2.84318C122.811 2.47275 123.037 2.11776 123.243 1.7782C123.459 1.42836 123.654 1.09909 123.829 0.7904C124.004 0.481711 124.143 0.219325 124.246 0.00324286C124.565 0.239904 124.951 0.497145 125.404 0.774965C125.867 1.05279 126.314 1.31003 126.746 1.54669C127.24 1.82451 127.755 2.10747 128.29 2.39558L123.181 7.90568Z" fill="white"/>
</svg>
